<svg width="899px" height="800px" viewBox="0 0 899 800" version="1.1" xmlns="http://www.w3.org/2000/svg" xmlns:xlink="http://www.w3.org/1999/xlink">
    <defs>
        <text font-family="Helvetica" font-size="240" font-weight="normal" fill="#FFFFFF">
            <tspan x="0" y="233">Meta</tspan>
        </text>
        <filter x="-3.0%" y="-2.8%" width="106.0%" height="111.1%" filterUnits="objectBoundingBox" id="filter-2">
            <feOffset dx="0" dy="8" in="SourceAlpha" result="shadowOffsetOuter1"></feOffset>
            <feGaussianBlur stdDeviation="4" in="shadowOffsetOuter1" result="shadowBlurOuter1"></feGaussianBlur>
            <feColorMatrix values="0 0 0 0 0   0 0 0 0 0   0 0 0 0 0  0 0 0 0.2 0" type="matrix" in="shadowBlurOuter1"></feColorMatrix>
        </filter>
        <text font-family="Helvetica" font-size="48" font-weight="normal" fill="#FFFFFF">
            <tspan x="252" y="283">Network</tspan>
        </text>
        <filter x="-5.3%" y="-6.9%" width="127.2%" height="127.6%" filterUnits="objectBoundingBox" id="filter-4">
            <feOffset dx="0" dy="4" in="SourceAlpha" result="shadowOffsetOuter1"></feOffset>
            <feGaussianBlur stdDeviation="2" in="shadowOffsetOuter1" result="shadowBlurOuter1"></feGaussianBlur>
            <feColorMatrix values="0 0 0 0 0   0 0 0 0 0   0 0 0 0 0  0 0 0 0.2 0" type="matrix" in="shadowBlurOuter1"></feColorMatrix>
        </filter>
    </defs>
    <g stroke="none" stroke-width="1" fill="none" fill-rule="evenodd">
        <g transform="translate(-386.000000, -280.000000)">
            <g transform="translate(386.164862, 280.000000)">
                <g transform="translate(0.000000, 38.000000)" fill-rule="nonzero">
                    <g transform="translate(445.335138, 450.500000) scale(-1, 1) translate(-445.335138, -450.500000) translate(0.835138, 139.000000)">
                        <path d="M63.697071,622.756477 C63.6885355,622.302769 63.68,621.841356 63.68,621.379087 C63.68,596.86942 63.68,566.592521 93.3218986,548.154841 C138.749252,519.897373 194.914783,569.751359 185.942589,509.170167 C176.970396,448.588975 128.272322,92.1003765 128.272322,92.1003765 L143.130519,66.0705992 C143.130519,66.0705992 213.486061,368.232544 234.594971,455.372342 C256.012147,543.784697 246.97348,446.281911 305.910738,443.58363 C361.543924,441.037727 387.456685,472.645789 398.079049,511.541435 C430.266218,502.058931 459.943111,497.054442 482.395604,518.771662 C512.993471,441.214074 563.418328,508.117221 557.568134,435.460538 C550.686857,350.012706 514.021691,14.5666055 514.021691,14.5666055 L525.439558,0 C525.439558,0 592.832331,314.78097 616.496857,422.362921 C633.257912,498.567088 676.349114,416.980057 750.447032,455.372342 C808.520502,485.46091 794.005976,555.529743 794.005976,555.529743 C794.005976,555.529743 857.562617,549.207788 863.050909,622.756477 L63.697071,622.756477 Z" fill="#B5BABD"></path>
                        <path d="M343.231515,582.895244 C343.231515,597.731537 338.694476,611.520774 330.907523,623 L208.510658,623 C201.45227,612.592578 197.059209,600.283045 196.307227,587.021177 C196.229166,585.653262 196.186667,584.280226 196.186667,582.895244 C196.186667,542.94921 229.102975,510.557858 269.709092,510.557858 C277.91063,510.557858 285.793857,511.877986 293.159282,514.317706 C322.266245,523.944315 343.231515,551.013341 343.231515,582.895244" fill="#D7DBDE"></path>
                        <path d="M579.692121,621.697648 C579.692121,622.128936 579.683513,622.568712 579.674904,623 L468.344488,623 C468.335881,622.568712 468.327273,622.128936 468.327273,621.697648 C468.327273,596.126021 486.058122,574.630403 510.057349,568.51342 C514.517176,567.384261 519.187901,566.778929 524.008406,566.778929 C526.786221,566.778929 529.520997,566.978442 532.18863,567.36813 C559.066386,571.269246 579.692121,594.109666 579.692121,621.697648" fill="#D7DBDE"></path>
                        <path d="M417.835152,621.321262 C417.835152,621.87775 417.82393,622.444355 417.813572,623 L272.974307,623 C272.963085,622.444355 272.952727,621.87775 272.952727,621.321262 C272.952727,588.374657 296.018938,560.677586 327.242312,552.796539 C333.044686,551.342082 339.120693,550.561313 345.393508,550.561313 C349.006829,550.561313 352.564042,550.817634 356.034074,551.321003 C391.001973,556.346256 417.835152,585.776027 417.835152,621.321262" fill="#D7DBDE"></path>
                        <path d="M213.486061,622.017061 C213.486061,622.315697 213.480148,622.620189 213.474237,622.918826 L136.731823,622.918826 C136.725912,622.620189 136.72,622.315697 136.72,622.017061 C136.72,604.313861 148.94163,589.432231 165.485422,585.196948 C168.559408,584.416478 171.779493,583.996546 175.102609,583.996546 C177.017094,583.996546 178.902021,584.134571 180.741346,584.404766 C199.268872,587.105879 213.486061,602.917715 213.486061,622.017061" fill="#D7DBDE"></path>
                        <path d="M107.283636,622.386854 C107.283636,622.53712 107.281131,622.689113 107.277791,622.837651 L70.5274343,622.837651 C70.5249292,622.689113 70.5224242,622.53712 70.5224242,622.386854 C70.5224242,613.535857 76.3749928,606.095112 84.2975455,603.977574 C85.769664,603.586365 87.3110882,603.376511 88.9026128,603.376511 C89.8194512,603.376511 90.7220945,603.445599 91.6030275,603.581183 C100.474984,604.930984 107.283636,612.837207 107.283636,622.386854" fill="#BEC2C7"></path>
                        <path d="M812.152727,622.098236 C812.152727,622.396871 812.146815,622.701363 812.140904,623 L735.397645,623 C735.391734,622.701363 735.386667,622.396871 735.386667,622.098236 C735.386667,604.395035 747.608297,589.513405 764.152088,585.278122 C767.226075,584.497652 770.445315,584.07772 773.769275,584.07772 C775.682916,584.07772 777.568689,584.215746 779.408013,584.485941 C797.934695,587.187053 812.152727,602.99889 812.152727,622.098236" fill="#D7DBDE"></path>
                        <path d="M722.412121,585.287597 C722.412121,598.842565 719.221979,611.658124 713.552702,623 L562.614414,623 C556.933174,611.658124 553.74303,598.842565 553.74303,585.287597 C553.74303,538.644955 591.506017,500.827288 638.083131,500.827288 C648.192799,500.827288 657.894834,502.606491 666.87133,505.883337 C699.270125,517.659102 722.412121,548.769032 722.412121,585.287597" fill="#D7DBDE"></path>
                        <path d="M136.476364,516.260794 C136.476364,522.530655 131.393065,527.613126 125.123217,527.613126 C118.853369,527.613126 113.770909,522.530655 113.770909,516.260794 C113.770909,509.990094 118.853369,504.908463 125.123217,504.908463 C131.393065,504.908463 136.476364,509.990094 136.476364,516.260794" fill="#D7DBDE"></path>
                        <path d="M14.2993939,583.293609 C14.2993939,587.17481 11.1528517,590.321244 7.27151513,590.321244 C3.39017862,590.321244 0.243636364,587.17481 0.243636364,583.293609 C0.243636364,579.411506 3.39017862,576.265976 7.27151513,576.265976 C11.1528517,576.265976 14.2993939,579.411506 14.2993939,583.293609" fill="#D7DBDE"></path>
                        <path d="M532.2,447.606218 C532.2,456.562927 524.938652,463.823834 515.9814,463.823834 C507.024148,463.823834 499.763636,456.562927 499.763636,447.606218 C499.763636,438.64951 507.024148,431.388601 515.9814,431.388601 C524.938652,431.388601 532.2,438.64951 532.2,447.606218" fill="#D7DBDE"></path>
                        <path d="M651.133333,433.010363 C651.133333,436.891374 647.986601,440.037997 644.105455,440.037997 C640.223431,440.037997 637.077576,436.891374 637.077576,433.010363 C637.077576,429.128473 640.223431,425.982729 644.105455,425.982729 C647.986601,425.982729 651.133333,429.128473 651.133333,433.010363" fill="#D7DBDE"></path>
                        <path d="M889,556.804835 C889,565.164232 882.222534,571.941278 873.86262,571.941278 C865.503526,571.941278 858.726061,565.164232 858.726061,556.804835 C858.726061,548.44544 865.503526,541.668394 873.86262,541.668394 C882.222534,541.668394 889,548.44544 889,556.804835" fill="#D7DBDE"></path>
                    </g>
                    <g transform="translate(553.335138, 139.000000) scale(-1, 1) translate(-553.335138, -139.000000) translate(309.835138, -0.000000)">
                        <polygon fill="#F4CF1F" points="422.800915 175.879964 45.8795363 226.317778 34.2723216 139.748231 208.065338 5.14075159 411.19286 89.3104169"></polygon>
                        <path d="M341.36053,186.775324 L127.315888,215.418555 L112.650736,106.043417 C110.619957,90.9018288 116.807277,75.8248983 128.892767,66.4638491 L208.067103,5.14259897 L300.598688,43.486959 C314.724203,49.3397137 324.664599,62.2585994 326.695378,77.4001881 L341.36053,186.775324 Z" fill="#F09615"></path>
                        <path d="M461.903083,207.840455 L412.933228,214.393525 C412.933228,214.393525 397.557808,99.7223583 392.145478,59.3543059 C387.560254,25.1597757 409.224702,0.849431266 409.224702,0.849431266 C409.224702,0.849431266 436.529269,18.6067058 441.115334,52.8012359 C446.289786,91.3949885 461.903083,207.840455 461.903083,207.840455" fill="#F4CF1F"></path>
                        <polygon fill="#F09615" points="457.531192 175.234566 408.561337 181.787636 393.978559 73.0254845 442.947574 66.4732539"></polygon>
                        <polygon fill="#F09615" points="459.104793 223.393919 419.730706 228.662239 417.731028 213.75157 457.105116 208.48241"></polygon>
                        <polygon fill="#F09615" points="390.202369 224.286863 412.933479 214.393441 409.107277 185.854335 389.082751 215.940181"></polygon>
                        <polygon fill="#F09615" points="486.439201 211.408788 461.903419 207.840035 458.076376 179.301769 485.320423 203.062106"></polygon>
                        <path d="M73.6156911,257.153196 L24.6458357,263.706265 C24.6458357,263.706265 9.27041553,149.035099 3.85808612,108.666206 C-0.727137871,74.472516 20.9373099,50.1621714 20.9373099,50.1621714 C20.9373099,50.1621714 48.2418771,67.9194456 52.8271016,102.113976 C58.0015535,140.707729 73.6156911,257.153196 73.6156911,257.153196" fill="#F4CF1F"></path>
                        <polygon fill="#F09615" points="69.2433801 224.547306 20.2743646 231.100376 5.69074673 122.338225 54.659762 115.785154"></polygon>
                        <polygon fill="#F09615" points="70.8169811 272.70666 31.4437348 277.974979 29.4440561 263.06431 68.8173022 257.795151"></polygon>
                        <polygon fill="#F09615" points="1.91447228 273.599184 24.6455834 263.705761 20.8193801 235.166656 0.79569447 265.252501"></polygon>
                        <polygon fill="#F09615" points="98.1518092 260.721528 73.6160274 257.152776 69.7889829 228.614509 97.0330303 252.374846"></polygon>
                    </g>
                </g>
                <g transform="translate(355.835138, 0.000000)" fill="#FFFFFF" fill-opacity="1">
                    <g id="Meta">
                        <use filter="url(#filter-2)" xlink:href="#text-1"></use>
                        <use xlink:href="#text-1"></use>
                    </g>
                    <g id="Network">
                        <use filter="url(#filter-4)" xlink:href="#text-3"></use>
                        <use xlink:href="#text-3"></use>
                    </g>
                </g>
            </g>
        </g>
    </g>
</svg>