<svg width="349px" height="176px" viewBox="0 0 349 176" version="1.1" xmlns="http://www.w3.org/2000/svg" xmlns:xlink="http://www.w3.org/1999/xlink">
    <g stroke="none" stroke-width="1" fill="none" fill-rule="evenodd">
        <g transform="translate(-1125.000000, -229.000000)">
            <g transform="translate(1128.781884, 229.571516)">
                <path d="M257.800572,102.180723 C249.614473,149.733297 204.379473,181.655427 156.764834,173.480548 C109.150197,165.305668 77.1864019,120.129628 85.3719507,72.5765068 C93.5580479,25.0239334 138.793052,-6.89764891 186.40769,1.27723013 C234.022328,9.45210917 265.986122,54.6281495 257.800572,102.180723" fill="#9F8BEF" fill-rule="nonzero"></path>
                <path d="M259.055175,85.3455782 C240.278658,89.0599378 193.645938,95.4532391 157.062207,77.0567482 C122.722618,59.7833308 119.29963,43.0522755 102.728309,33.4705415 C105.476025,29.9698394 108.482659,26.6992303 111.713104,23.6861065 C129.09135,24.5243028 157.830185,29.4329555 186.826841,49.7468886 C211.446023,66.9983925 237.902867,70.2635234 257.24494,69.5513302 C258.320108,74.6955548 258.934497,79.9767392 259.055175,85.3455782" fill="#B0A2ED" fill-rule="nonzero"></path>
                <path d="M143.841849,91.9087101 C142.558228,92.4182017 118.767914,101.490444 84.0931574,87.8875591 C84.0717641,82.8419458 84.4831805,77.7251138 85.3712927,72.5754108 C86.397092,66.598469 88.0153312,60.8735334 90.1437272,55.4389541 C102.497751,68.7295697 130.599714,96.7297083 143.841849,91.9087101" fill="#B0A2ED" fill-rule="nonzero"></path>
                <path d="M253.218704,118.824069 C249.647607,128.10449 244.573471,136.530281 238.336387,143.865868 C216.487411,135.785217 175.011116,123.206794 143.897034,130.323245 C126.431019,134.317004 110.330908,134.579968 97.2478532,133.429502 C92.9142631,126.460968 89.5516164,118.878853 87.3135087,110.891336 C106.06863,110.639329 141.807036,109.006764 171.587579,100.964462 C202.142682,92.7139808 231.644007,110.595502 253.218704,118.824069" fill="#B0A2ED" fill-rule="nonzero"></path>
                <path d="M223.361035,157.80288 C219.559001,160.59139 215.527665,163.073108 211.320239,165.215165 C189.789427,156.575717 162.229986,147.24599 147.358091,149.85919 C149.196301,149.464745 180.173244,143.241275 223.361035,157.80288" fill="#B0A2ED" fill-rule="nonzero"></path>
                <path d="M251.31538,51.4014227 C234.557006,50.2619141 199.99196,44.7615932 172.103934,19.7417082 C156.749311,5.96899275 184.478803,8.6698474 223.245237,16.8545876 C235.450601,25.7843911 245.110671,37.732797 251.31538,51.4014227" fill="#B0A2ED" fill-rule="nonzero"></path>
                <path d="M181.429162,174.210819 C173.409278,175.114756 165.126086,174.917534 156.766096,173.482191 C137.972577,170.255409 121.62013,161.265343 109.217285,148.637615 C124.367846,149.61825 154.824209,154.187241 181.429162,174.210819" fill="#B0A2ED" fill-rule="nonzero"></path>
                <path d="M152.706619,16.9695793 C149.92599,16.7175727 138.603251,15.4411038 129.914129,10.5653215 C134.407348,8.1274303 139.124379,6.07850608 144.012011,4.45141922 C147.171692,10.4941022 150.633627,16.224516 152.706619,16.9695793" fill="#B0A2ED" fill-rule="nonzero"></path>
                <path d="M153.348375,17.0187755 C153.15638,17.0680811 152.948478,17.0461675 152.718084,16.9694698 C153.124016,17.0023402 153.348375,17.0187755 153.348375,17.0187755" fill="#E8F6FF" fill-rule="nonzero"></path>
                <path d="M281.393294,88.5291352 C319.231025,100.684077 342.594564,113.367685 340.969193,122.810815 C338.118899,139.369849 259.497147,139.692527 165.362787,123.530678 C71.2289773,107.36883 -2.77064407,80.8429297 0.0796516879,64.2833492 C1.74945516,54.5827338 29.4208013,50.4542059 70.9804811,51.9470723" stroke="#9F8BEF" stroke-width="6" stroke-linecap="round"></path>
            </g>
        </g>
    </g>
</svg>