<svg width="1863px" height="467px" viewBox="0 0 1863 467" version="1.1" xmlns="http://www.w3.org/2000/svg" xmlns:xlink="http://www.w3.org/1999/xlink">
    <defs>
        <polygon points="0 0.0994271392 40.0704241 0.0994271392 40.0704241 40.1458301 0 40.1458301"></polygon>
        <polygon points="0.149071862 31.0161372 257.105665 134.315682 269.349287 103.682107 12.3926946 0.382562407"></polygon>
        <linearGradient x1="2.27407711%" y1="40.4543369%" x2="97.7258114%" y2="59.545621%" id="linearGradient-5">
            <stop stop-color="#B0A2ED" offset="0.0747787369%"></stop>
            <stop stop-color="#9F8BEF" offset="100%"></stop>
        </linearGradient>
        <polygon points="0.228389458 25.2865238 214.541151 110.943309 224.567229 86.0043986 10.253918 0.348160486"></polygon>
        <linearGradient x1="2.23456789%" y1="40.5884472%" x2="97.7654495%" y2="59.4113888%" id="linearGradient-8">
            <stop stop-color="#B0A2ED" offset="0%"></stop>
            <stop stop-color="#9F8BEF" offset="100%"></stop>
        </linearGradient>
    </defs>
    <g stroke="none" stroke-width="1" fill="none" fill-rule="evenodd">
        <g transform="translate(-26.000000, -47.000000)">
            <g transform="translate(26.000000, 47.000000)">
                <g transform="translate(0.000000, 41.654914)">
                    <path d="M241.648455,42.6375354 C241.648455,53.6961341 232.678177,62.6610108 221.613463,62.6610108 C210.548201,62.6610108 201.577922,53.6961341 201.577922,42.6375354 C201.577922,31.5789368 210.548201,22.6146079 221.613463,22.6146079 C232.678177,22.6146079 241.648455,31.5789368 241.648455,42.6375354" fill="#9F8BEF" fill-rule="nonzero"></path>
                    <path d="M1382.58213,404.372946 C1382.58213,415.431544 1373.6124,424.395873 1362.54659,424.395873 C1351.48188,424.395873 1342.5116,415.431544 1342.5116,404.372946 C1342.5116,393.314346 1351.48188,384.350018 1362.54659,384.350018 C1373.6124,384.350018 1382.58213,393.314346 1382.58213,404.372946" fill="#B0A2ED" fill-rule="nonzero"></path>
                    <g transform="translate(0.000000, 205.312935)">
                        <mask fill="white">
                            <use xlink:href="#path-1"></use>
                        </mask>
                        <g id="path-1"></g>
                        <path d="M40.0704241,20.1223547 C40.0704241,31.1809534 31.1001454,40.1458301 20.0354313,40.1458301 C8.97016907,40.1458301 -0.000109627604,31.1809534 -0.000109627604,20.1223547 C-0.000109627604,9.06375608 8.97016907,0.0994271392 20.0354313,0.0994271392 C31.1001454,0.0994271392 40.0704241,9.06375608 40.0704241,20.1223547" fill="#9F8BEF" fill-rule="nonzero" mask="url(#mask-2)"></path>
                    </g>
                    <path d="M1580.48033,130.634981 C1580.48033,131.593645 1580.41455,132.535874 1580.283,133.456192 C1579.02776,142.374504 1571.88552,149.408359 1562.90702,150.509453 C1562.10126,150.60751 1561.27905,150.65736 1560.44588,150.65736 C1549.37898,150.65736 1540.41144,141.695223 1540.41144,130.634981 C1540.41144,125.956701 1542.012,121.656409 1544.69788,118.249044 C1548.35944,113.614588 1554.01622,110.634514 1560.38011,110.612601 L1560.44588,110.612601 C1571.51279,110.612601 1580.48033,119.574739 1580.48033,130.634981" fill="#9F8BEF" fill-rule="nonzero"></path>
                    <path d="M99.0174622,323.864177 C99.0174622,326.596258 96.7996511,328.811726 94.0640035,328.811726 C91.3278076,328.811726 89.1099965,326.596258 89.1099965,323.864177 C89.1099965,321.132095 91.3278076,318.917175 94.0640035,318.917175 C96.7996511,318.917175 99.0174622,321.132095 99.0174622,323.864177" fill="#9F8BEF" fill-rule="nonzero"></path>
                    <path d="M322.932924,312.428002 C322.932924,315.160083 320.715113,317.375551 317.979465,317.375551 C315.243269,317.375551 313.025458,315.160083 313.025458,312.428002 C313.025458,309.69592 315.243269,307.481001 317.979465,307.481001 C320.715113,307.481001 322.932924,309.69592 322.932924,312.428002" fill="#9F8BEF" fill-rule="nonzero"></path>
                    <path d="M278.378019,150.683127 C278.378019,155.305259 274.626447,159.051942 269.998282,159.051942 C265.370666,159.051942 261.618544,155.305259 261.618544,150.683127 C261.618544,146.060996 265.370666,142.314313 269.998282,142.314313 C274.626447,142.314313 278.378019,146.060996 278.378019,150.683127" fill="#9F8BEF" fill-rule="nonzero"></path>
                    <path d="M341.994194,26.8034147 C341.994194,29.5354962 339.776382,31.7504162 337.040735,31.7504162 C334.304539,31.7504162 332.086728,29.5354962 332.086728,26.8034147 C332.086728,24.071333 334.304539,21.856413 337.040735,21.856413 C339.776382,21.856413 341.994194,24.071333 341.994194,26.8034147" fill="#9F8BEF" fill-rule="nonzero"></path>
                    <path d="M220.998814,76.5662518 C220.998814,79.2983333 218.781004,81.513253 216.045356,81.513253 C213.309161,81.513253 211.091349,79.2983333 211.091349,76.5662518 C211.091349,73.8341695 213.309161,71.6192498 216.045356,71.6192498 C218.781004,71.6192498 220.998814,73.8341695 220.998814,76.5662518" fill="#9F8BEF" fill-rule="nonzero"></path>
                    <path d="M15.2060442,29.8943867 C15.2060442,32.6264683 12.9882333,34.8413882 10.2525858,34.8413882 C7.51638975,34.8413882 5.29857889,32.6264683 5.29857889,29.8943867 C5.29857889,27.1623051 7.51638975,24.9468373 10.2525858,24.9468373 C12.9882333,24.9468373 15.2060442,27.1623051 15.2060442,29.8943867" fill="#9F8BEF" fill-rule="nonzero"></path>
                    <path d="M856.982984,15.0526697 C856.982984,17.7847514 854.765173,19.9996713 852.029525,19.9996713 C849.293329,19.9996713 847.075518,17.7847514 847.075518,15.0526697 C847.075518,12.3205881 849.293329,10.1056681 852.029525,10.1056681 C854.765173,10.1056681 856.982984,12.3205881 856.982984,15.0526697" fill="#9F8BEF" fill-rule="nonzero"></path>
                    <path d="M1496.71059,251.307148 C1496.71059,254.039229 1494.49278,256.254149 1491.75714,256.254149 C1489.02094,256.254149 1486.80313,254.039229 1486.80313,251.307148 C1486.80313,248.575066 1489.02094,246.360146 1491.75714,246.360146 C1494.49278,246.360146 1496.71059,248.575066 1496.71059,251.307148" fill="#9F8BEF" fill-rule="nonzero"></path>
                    <path d="M658.874548,168.172833 C658.874548,170.904914 656.656737,173.119835 653.92109,173.119835 C651.184893,173.119835 648.967083,170.904914 648.967083,168.172833 C648.967083,165.440751 651.184893,163.225831 653.92109,163.225831 C656.656737,163.225831 658.874548,165.440751 658.874548,168.172833" fill="#9F8BEF" fill-rule="nonzero"></path>
                    <path d="M586.771725,266.882562 C586.771725,269.220198 584.874271,271.115178 582.533583,271.115178 C580.193993,271.115178 578.296539,269.220198 578.296539,266.882562 C578.296539,264.544925 580.193993,262.649944 582.533583,262.649944 C584.874271,262.649944 586.771725,264.544925 586.771725,266.882562" fill="#9F8BEF" fill-rule="nonzero"></path>
                    <path d="M467.026887,112.295491 C467.026887,115.605545 464.340062,118.288869 461.025688,118.288869 C457.710765,118.288869 455.023391,115.605545 455.023391,112.295491 C455.023391,108.985437 457.710765,106.301566 461.025688,106.301566 C464.340062,106.301566 467.026887,108.985437 467.026887,112.295491" fill="#9F8BEF" fill-rule="nonzero"></path>
                    <path d="M373.044368,82.2691089 C373.044368,84.310363 371.387182,85.9648423 369.343811,85.9648423 C367.299893,85.9648423 365.643254,84.310363 365.643254,82.2691089 C365.643254,80.227854 367.299893,78.5733755 369.343811,78.5733755 C371.387182,78.5733755 373.044368,80.227854 373.044368,82.2691089" fill="#9F8BEF" fill-rule="nonzero"></path>
                    <path d="M714.440445,137.760391 C714.440445,143.749386 709.579693,148.60435 703.582333,148.60435 C697.585522,148.60435 692.724769,143.749386 692.724769,137.760391 C692.724769,131.771396 697.585522,126.916432 703.582333,126.916432 C709.579693,126.916432 714.440445,131.771396 714.440445,137.760391" fill="#9F8BEF" fill-rule="nonzero"></path>
                    <path d="M186.038535,400.216516 C186.038535,402.113141 184.498739,403.650382 182.599639,403.650382 C180.701087,403.650382 179.161291,402.113141 179.161291,400.216516 C179.161291,398.319893 180.701087,396.782103 182.599639,396.782103 C184.498739,396.782103 186.038535,398.319893 186.038535,400.216516" fill="#9F8BEF" fill-rule="nonzero"></path>
                    <path d="M555.693078,185.180766 C555.693078,187.077391 554.153831,188.61518 552.254731,188.61518 C550.35618,188.61518 548.816383,187.077391 548.816383,185.180766 C548.816383,183.284142 550.35618,181.746901 552.254731,181.746901 C554.153831,181.746901 555.693078,183.284142 555.693078,185.180766" fill="#9F8BEF" fill-rule="nonzero"></path>
                    <path d="M405.304438,221.757133 C405.304438,223.653757 403.76519,225.190998 401.86609,225.190998 C399.966991,225.190998 398.427743,223.653757 398.427743,221.757133 C398.427743,219.860508 399.966991,218.323267 401.86609,218.323267 C403.76519,218.323267 405.304438,219.860508 405.304438,221.757133" fill="#9F8BEF" fill-rule="nonzero"></path>
                    <path d="M287.261057,166.138974 C285.361957,166.138974 283.822161,164.601733 283.822161,162.705108 C283.822161,160.808484 285.361957,159.271243 287.261057,159.271243 C289.160157,159.271243 290.699404,160.808484 290.699404,162.705108 C290.699404,164.601733 289.160157,166.138974 287.261057,166.138974 Z" fill="#9F8BEF" fill-rule="nonzero"></path>
                    <path d="M23.00338,348.827031 C23.00338,350.723656 21.463584,352.260897 19.5650326,352.260897 C17.6659326,352.260897 16.1261367,350.723656 16.1261367,348.827031 C16.1261367,346.930407 17.6659326,345.392618 19.5650326,345.392618 C21.463584,345.392618 23.00338,346.930407 23.00338,348.827031" fill="#9F8BEF" fill-rule="nonzero"></path>
                    <path d="M255.242297,221.757133 C255.242297,223.653757 253.70305,225.190998 251.80395,225.190998 C249.90485,225.190998 248.365054,223.653757 248.365054,221.757133 C248.365054,219.860508 249.90485,218.323267 251.80395,218.323267 C253.70305,218.323267 255.242297,219.860508 255.242297,221.757133" fill="#9F8BEF" fill-rule="nonzero"></path>
                    <path d="M107.36659,245.394267 C107.36659,247.696842 105.497661,249.563335 103.192081,249.563335 C100.886501,249.563335 99.0175719,247.696842 99.0175719,245.394267 C99.0175719,243.091693 100.886501,241.2252 103.192081,241.2252 C105.497661,241.2252 107.36659,243.091693 107.36659,245.394267" fill="#9F8BEF" fill-rule="nonzero"></path>
                    <path d="M1572.77173,387.882562 C1572.77173,390.220198 1570.87427,392.115178 1568.53358,392.115178 C1566.19399,392.115178 1564.29654,390.220198 1564.29654,387.882562 C1564.29654,385.544925 1566.19399,383.649944 1568.53358,383.649944 C1570.87427,383.649944 1572.77173,385.544925 1572.77173,387.882562" fill="#9F8BEF" fill-rule="nonzero"></path>
                    <path d="M1862.64372,392.114905 C1862.64372,395.130768 1860.19551,397.576329 1857.17572,397.576329 C1854.15537,397.576329 1851.70716,395.130768 1851.70716,392.114905 C1851.70716,389.098494 1854.15537,386.653481 1857.17572,386.653481 C1860.19551,386.653481 1862.64372,389.098494 1862.64372,392.114905" fill="#9F8BEF" fill-rule="nonzero"></path>
                    <path d="M1236.03853,380.216516 C1236.03853,382.113141 1234.49874,383.650382 1232.59964,383.650382 C1230.70109,383.650382 1229.16129,382.113141 1229.16129,380.216516 C1229.16129,378.319893 1230.70109,376.782103 1232.59964,376.782103 C1234.49874,376.782103 1236.03853,378.319893 1236.03853,380.216516" fill="#9F8BEF" fill-rule="nonzero"></path>
                    <path d="M1328.37802,130.683127 C1328.37802,135.305259 1324.62645,139.051942 1319.99828,139.051942 C1315.37067,139.051942 1311.61854,135.305259 1311.61854,130.683127 C1311.61854,126.060996 1315.37067,122.314313 1319.99828,122.314313 C1324.62645,122.314313 1328.37802,126.060996 1328.37802,130.683127" fill="#9F8BEF" fill-rule="nonzero"></path>
                    <path d="M1391.99419,6.80341466 C1391.99419,9.53549621 1389.77638,11.7504162 1387.04073,11.7504162 C1384.30454,11.7504162 1382.08673,9.53549621 1382.08673,6.80341466 C1382.08673,4.07133303 1384.30454,1.85641305 1387.04073,1.85641305 C1389.77638,1.85641305 1391.99419,4.07133303 1391.99419,6.80341466" fill="#9F8BEF" fill-rule="nonzero"></path>
                    <path d="M1270.99881,56.5662518 C1270.99881,59.2983333 1268.781,61.513253 1266.04536,61.513253 C1263.30916,61.513253 1261.09135,59.2983333 1261.09135,56.5662518 C1261.09135,53.8341695 1263.30916,51.6192498 1266.04536,51.6192498 C1268.781,51.6192498 1270.99881,53.8341695 1270.99881,56.5662518" fill="#9F8BEF" fill-rule="nonzero"></path>
                    <path d="M1065.20604,9.89438671 C1065.20604,12.6264683 1062.98823,14.8413882 1060.25259,14.8413882 C1057.51639,14.8413882 1055.29858,12.6264683 1055.29858,9.89438671 C1055.29858,7.16230508 1057.51639,4.94683726 1060.25259,4.94683726 C1062.98823,4.94683726 1065.20604,7.16230508 1065.20604,9.89438671" fill="#9F8BEF" fill-rule="nonzero"></path>
                    <path d="M1708.87455,148.172833 C1708.87455,150.904914 1706.65674,153.119835 1703.92109,153.119835 C1701.18489,153.119835 1698.96708,150.904914 1698.96708,148.172833 C1698.96708,145.440751 1701.18489,143.225831 1703.92109,143.225831 C1706.65674,143.225831 1708.87455,145.440751 1708.87455,148.172833" fill="#9F8BEF" fill-rule="nonzero"></path>
                    <path d="M1724.82392,4.94700162 C1724.82392,7.67963108 1722.60611,9.89455107 1719.87046,9.89455107 C1717.13426,9.89455107 1714.91645,7.67963108 1714.91645,4.94700162 C1714.91645,2.21491999 1717.13426,-1.77635684e-15 1719.87046,-1.77635684e-15 C1722.60611,-1.77635684e-15 1724.82392,2.21491999 1724.82392,4.94700162" fill="#9F8BEF" fill-rule="nonzero"></path>
                    <path d="M1517.02689,92.2954911 C1517.02689,95.6055449 1514.34006,98.2888688 1511.02569,98.2888688 C1507.71076,98.2888688 1505.02339,95.6055449 1505.02339,92.2954911 C1505.02339,88.9854373 1507.71076,86.3015658 1511.02569,86.3015658 C1514.34006,86.3015658 1517.02689,88.9854373 1517.02689,92.2954911" fill="#9F8BEF" fill-rule="nonzero"></path>
                    <path d="M1423.04437,62.2691089 C1423.04437,64.310363 1421.38718,65.9648423 1419.34381,65.9648423 C1417.29989,65.9648423 1415.64325,64.310363 1415.64325,62.2691089 C1415.64325,60.227854 1417.29989,58.5733755 1419.34381,58.5733755 C1421.38718,58.5733755 1423.04437,60.227854 1423.04437,62.2691089" fill="#9F8BEF" fill-rule="nonzero"></path>
                    <path d="M1605.69308,165.180766 C1605.69308,167.077391 1604.15383,168.61518 1602.25473,168.61518 C1600.35618,168.61518 1598.81638,167.077391 1598.81638,165.180766 C1598.81638,163.284142 1600.35618,161.746901 1602.25473,161.746901 C1604.15383,161.746901 1605.69308,163.284142 1605.69308,165.180766" fill="#9F8BEF" fill-rule="nonzero"></path>
                    <path d="M1340.6994,142.705108 C1340.6994,144.601733 1339.16016,146.138974 1337.26106,146.138974 C1335.36196,146.138974 1333.82216,144.601733 1333.82216,142.705108 C1333.82216,140.808484 1335.36196,139.271243 1337.26106,139.271243 C1339.16016,139.271243 1340.6994,140.808484 1340.6994,142.705108" fill="#9F8BEF" fill-rule="nonzero"></path>
                    <path d="M1123.2423,88.7571327 C1123.2423,90.6537567 1121.70305,92.1909976 1119.80395,92.1909976 C1117.90485,92.1909976 1116.36505,90.6537567 1116.36505,88.7571327 C1116.36505,86.8605079 1117.90485,85.323267 1119.80395,85.323267 C1121.70305,85.323267 1123.2423,86.8605079 1123.2423,88.7571327" fill="#9F8BEF" fill-rule="nonzero"></path>
                    <path d="M1477.8859,193.637535 C1477.8859,204.696134 1468.91618,213.661011 1457.85037,213.661011 C1446.78565,213.661011 1437.81537,204.696134 1437.81537,193.637535 C1437.81537,182.578937 1446.78565,173.614608 1457.85037,173.614608 C1468.91618,173.614608 1477.8859,182.578937 1477.8859,193.637535" fill="#9F8BEF" fill-rule="nonzero"></path>
                    <path d="M1580.28283,133.456137 C1579.0276,142.37445 1571.88536,149.408304 1562.90686,150.509398 C1562.59442,149.354071 1562.42998,148.13739 1562.42998,146.882909 C1562.42998,139.169773 1568.68971,132.908329 1576.41298,132.908329 C1577.75646,132.908329 1579.055,133.100062 1580.28283,133.456137" fill="#B0A2ED" fill-rule="nonzero"></path>
                    <path d="M1560.44572,111.708053 C1560.44572,113.324086 1560.02913,114.846992 1559.30011,116.167209 C1558.3902,117.805155 1556.99793,119.141806 1555.30967,119.974474 C1554.07635,120.588019 1552.68408,120.933138 1551.21507,120.933138 C1548.67171,120.933138 1546.36953,119.903259 1544.69771,118.248879 C1548.35927,113.614424 1554.01606,110.634349 1560.37994,110.612436 C1560.42379,110.968512 1560.44572,111.335543 1560.44572,111.708053" fill="#B0A2ED" fill-rule="nonzero"></path>
                    <path d="M1562.4314,119.705556 C1562.4314,121.673829 1560.83468,123.269594 1558.86467,123.269594 C1556.89521,123.269594 1555.29848,121.673829 1555.29848,119.705556 C1555.29848,117.736734 1556.89521,116.140969 1558.86467,116.140969 C1560.83468,116.140969 1562.4314,117.736734 1562.4314,119.705556" fill="#B0A2ED" fill-rule="nonzero"></path>
                    <path d="M1764.44045,117.760391 C1764.44045,123.749386 1759.57969,128.60435 1753.58233,128.60435 C1747.58552,128.60435 1742.72477,123.749386 1742.72477,117.760391 C1742.72477,111.771396 1747.58552,106.916432 1753.58233,106.916432 C1759.57969,106.916432 1764.44045,111.771396 1764.44045,117.760391" fill="#B0A2ED" fill-rule="nonzero"></path>
                </g>
                <g transform="translate(288.000000, 0.000000)">
                    <g transform="translate(0.000000, 3.000000)">
                        <g id="comet1">
                            <mask fill="white">
                                <use xlink:href="#path-3"></use>
                            </mask>
                            <g id="path-3"></g>
                            <polygon fill="url(#linearGradient-5)" fill-rule="nonzero" mask="url(#mask-4)" points="0.149071862 31.0161372 257.105665 134.315682 269.349287 103.682107 12.3926946 0.382562407"></polygon>
                        </g>
                        <path d="M278.752177,124.729528 C275.368136,133.160796 265.781028,137.255905 257.338754,133.876276 C248.895933,130.496646 244.796028,120.922035 248.180068,112.490766 C251.564109,104.059498 261.150668,99.9643885 269.59349,103.344017 C278.035214,106.723647 282.136217,116.298259 278.752177,124.729528" fill="#9F8BEF" fill-rule="nonzero"></path>
                        <path d="M272.26759,122.133694 C270.31912,126.988658 264.799003,129.346564 259.937702,127.400634 C255.076402,125.454704 252.715417,119.941784 254.663887,115.086819 C256.612357,110.231854 262.132474,107.873948 266.994324,109.819878 C271.855076,111.765809 274.216608,117.27873 272.26759,122.133694" fill="#B0A2ED" fill-rule="nonzero"></path>
                    </g>
                    <g transform="translate(184.000000, 0.000000)">
                        <g>
                            <mask fill="white">
                                <use xlink:href="#path-6"></use>
                            </mask>
                            <g id="path-6"></g>
                            <polygon fill="url(#linearGradient-8)" fill-rule="nonzero" mask="url(#mask-7)" points="0.228389458 25.2865238 214.541151 110.943309 224.567229 86.0043986 10.253918 0.348160486"></polygon>
                        </g>
                        <path d="M229.986691,102.721147 C227.220873,109.612983 219.384205,112.96029 212.482826,110.198077 C205.581994,107.435317 202.229771,99.6088642 204.996137,92.7170282 C207.762504,85.8251921 215.599171,82.4773374 222.500551,85.240098 C229.401382,88.0028585 232.753057,95.829311 229.986691,102.721147" fill="#9F8BEF" fill-rule="nonzero"></path>
                        <path d="M224.210783,100.408876 C222.723649,104.115018 218.509095,105.915223 214.798115,104.429479 C211.087135,102.944283 209.284581,98.7352224 210.772265,95.0290798 C212.259947,91.3229381 216.473953,89.5227334 220.184932,91.0084772 C223.895912,92.4942209 225.698466,96.7027338 224.210783,100.408876" fill="#B0A2ED" fill-rule="nonzero"></path>
                    </g>
                </g>
                <path d="M222.914207,320.942278 C219.121492,320.942278 216.045192,330.261048 216.045192,341.754199 C216.045192,330.261048 212.970537,320.942278 209.176177,320.942278 C212.970537,320.942278 216.045192,311.623508 216.045192,300.130357 C216.045192,311.623508 219.121492,320.942278 222.914207,320.942278" fill="#DBD4F8" fill-rule="nonzero"></path>
                <path d="M886.940385,369.813504 C886.940385,372.545585 884.722574,374.761054 881.986926,374.761054 C879.25073,374.761054 877.032919,372.545585 877.032919,369.813504 C877.032919,367.081422 879.25073,364.866503 881.986926,364.866503 C884.722574,364.866503 886.940385,367.081422 886.940385,369.813504" fill="#C3E4FF" fill-rule="nonzero"></path>
                <path d="M610.421386,173.5493 C605.880442,173.5493 602.19689,184.707172 602.19689,198.467835 C602.19689,184.707172 598.515532,173.5493 593.972393,173.5493 C598.515532,173.5493 602.19689,162.391429 602.19689,148.630218 C602.19689,162.391429 605.880442,173.5493 610.421386,173.5493" fill="#DBD4F8" fill-rule="nonzero"></path>
                <path d="M748.775595,233.760944 C743.280712,233.760944 738.823697,247.261382 738.823697,263.911357 C738.823697,247.261382 734.369972,233.760944 728.872896,233.760944 C734.369972,233.760944 738.823697,220.259957 738.823697,203.609982 C738.823697,220.259957 743.280712,233.760944 748.775595,233.760944" fill="#DBD4F8" fill-rule="nonzero"></path>
                <path d="M356.177926,291.63144 C351.126825,291.63144 347.029114,304.043319 347.029114,319.351631 C347.029114,304.043319 342.933597,291.63144 337.880301,291.63144 C342.933597,291.63144 347.029114,279.219013 347.029114,263.911248 C347.029114,279.219013 351.126825,291.63144 356.177926,291.63144" fill="#DBD4F8" fill-rule="nonzero"></path>
                <path d="M1483.95541,438.049181 C1483.95541,424.995781 1480.46331,414.412046 1476.1544,414.412046 C1480.46331,414.412046 1483.95541,403.828312 1483.95541,390.774911 C1483.95541,403.828312 1487.44916,414.412046 1491.75697,414.412046 C1487.44916,414.412046 1483.95541,424.995781 1483.95541,438.049181 Z" fill="#DBD4F8" fill-rule="nonzero"></path>
                <path d="M812.643721,453.769818 C812.643721,456.785682 810.195512,459.231243 807.175716,459.231243 C804.155371,459.231243 801.707162,456.785682 801.707162,453.769818 C801.707162,450.753407 804.155371,448.308395 807.175716,448.308395 C810.195512,448.308395 812.643721,450.753407 812.643721,453.769818" fill="#AAD5FF" fill-rule="nonzero"></path>
                <path d="M1090.91421,187.942278 C1087.12149,187.942278 1084.04519,197.261048 1084.04519,208.754199 C1084.04519,197.261048 1080.97054,187.942278 1077.17618,187.942278 C1080.97054,187.942278 1084.04519,178.623508 1084.04519,167.130357 C1084.04519,178.623508 1087.12149,187.942278 1090.91421,187.942278" fill="#DBD4F8" fill-rule="nonzero"></path>
                <path d="M1149.01746,345.51909 C1149.01746,348.251172 1146.79965,350.46664 1144.064,350.46664 C1141.32781,350.46664 1139.11,348.251172 1139.11,345.51909 C1139.11,342.787009 1141.32781,340.572088 1144.064,340.572088 C1146.79965,340.572088 1149.01746,342.787009 1149.01746,345.51909" fill="#C3E4FF" fill-rule="nonzero"></path>
                <path d="M1734.77559,354.760944 C1729.28071,354.760944 1724.8237,368.261382 1724.8237,384.911357 C1724.8237,368.261382 1720.36997,354.760944 1714.8729,354.760944 C1720.36997,354.760944 1724.8237,341.259957 1724.8237,324.609982 C1724.8237,341.259957 1729.28071,354.760944 1734.77559,354.760944" fill="#DBD4F8" fill-rule="nonzero"></path>
                <path d="M1073.00338,370.481945 C1073.00338,372.37857 1071.46358,373.915811 1069.56503,373.915811 C1067.66593,373.915811 1066.12614,372.37857 1066.12614,370.481945 C1066.12614,368.585321 1067.66593,367.047532 1069.56503,367.047532 C1071.46358,367.047532 1073.00338,368.585321 1073.00338,370.481945" fill="#D6EEFF" fill-rule="nonzero"></path>
                <path d="M137.667054,46.7084646 C144.891533,47.6337676 151.499984,42.5350141 152.426495,35.319952 C153.353554,28.1048899 148.248146,21.5050529 141.023118,20.5797499 C133.798639,19.6538991 127.190188,24.7526525 126.263677,31.9682626 C125.336618,39.1833247 130.442575,45.7831617 137.667054,46.7084646" fill="#B0A2ED" fill-rule="nonzero"></path>
                <path d="M138.628124,66.8480204 C141.508041,67.2167171 144.142754,65.1842282 144.512481,62.3075165 C144.881659,59.4313528 142.845968,56.8000739 139.966051,56.4313771 C137.085585,56.0626803 134.45142,58.0946216 134.081693,60.9713331 C133.712516,63.8480447 135.748206,66.4787757 138.628124,66.8480204" fill="#B0A2ED" fill-rule="nonzero"></path>
                <path d="M1660.42139,153.5493 C1655.88044,153.5493 1652.19689,164.707172 1652.19689,178.467835 C1652.19689,164.707172 1648.51553,153.5493 1643.97239,153.5493 C1648.51553,153.5493 1652.19689,142.391429 1652.19689,128.630218 C1652.19689,142.391429 1655.88044,153.5493 1660.42139,153.5493" fill="#DBD4F8" fill-rule="nonzero"></path>
                <path d="M1455.30444,243.412046 C1455.30444,245.30867 1453.76519,246.845911 1451.86609,246.845911 C1449.96699,246.845911 1448.42774,245.30867 1448.42774,243.412046 C1448.42774,241.515422 1449.96699,239.978181 1451.86609,239.978181 C1453.76519,239.978181 1455.30444,241.515422 1455.30444,243.412046" fill="#B0A2ED" fill-rule="nonzero"></path>
            </g>
        </g>
    </g>
</svg>